<svg width="21" height="23" viewBox="0 0 21 23" fill="none" xmlns="http://www.w3.org/2000/svg">
<path d="M11.7023 0.483184C11.3773 0.172891 10.9471 0 10.5 0C10.0529 0 9.62267 0.172891 9.29775 0.483184L0.820751 8.57566C0.561194 8.82376 0.354519 9.12278 0.213389 9.4544C0.0722594 9.78602 -0.000352751 10.1432 1.28844e-06 10.5042V20.3502C0.000465215 21.0532 0.277232 21.7271 0.769464 22.224C1.2617 22.7209 1.92911 23 2.625 23H5.25C5.94619 23 6.61387 22.7206 7.10616 22.2234C7.59844 21.7261 7.875 21.0517 7.875 20.3485V15.9292C7.875 15.6948 7.96719 15.47 8.13128 15.3043C8.29538 15.1385 8.51794 15.0454 8.75 15.0454H12.25C12.4821 15.0454 12.7046 15.1385 12.8687 15.3043C13.0328 15.47 13.125 15.6948 13.125 15.9292V20.3485C13.125 21.0517 13.4016 21.7261 13.8938 22.2234C14.3861 22.7206 15.0538 23 15.75 23H18.375C19.0712 23 19.7389 22.7206 20.2312 22.2234C20.7234 21.7261 21 21.0517 21 20.3485V10.5024C20.9999 10.1417 20.9269 9.78468 20.7855 9.45337C20.644 9.12207 20.4372 8.82341 20.1775 8.57566L11.7023 0.479649V0.483184Z" fill="#919191"/>
</svg>
