<svg width="22" height="22" viewBox="0 0 22 22" fill="none" xmlns="http://www.w3.org/2000/svg">
<g clip-path="url(#clip0_83_38)">
<path d="M6.50843 14.9356C6.51098 13.657 6.93511 12.4149 7.71511 11.4018C8.49511 10.3887 9.58744 9.66107 10.8229 9.33168L7.94454 1.83335C7.90056 1.7174 7.82235 1.61758 7.72029 1.54713C7.61823 1.47669 7.49716 1.43896 7.37315 1.43896C7.24914 1.43896 7.12807 1.47669 7.02601 1.54713C6.92395 1.61758 6.84574 1.7174 6.80176 1.83335L1.2651 16.2311C1.22943 16.3236 1.21677 16.4233 1.22821 16.5217C1.23965 16.6201 1.27486 16.7143 1.33079 16.7961C1.38672 16.8779 1.46169 16.9448 1.54926 16.9912C1.63682 17.0376 1.73435 17.0619 1.83343 17.0622H6.91787C6.64836 16.3856 6.50943 15.664 6.50843 14.9356Z" fill="#545454"/>
<path d="M19.5555 6.11108H12.2222C12.0601 6.11108 11.9047 6.17547 11.7901 6.29007C11.6755 6.40468 11.6111 6.56012 11.6111 6.7222V9.16664C12.4054 9.06416 13.2123 9.12838 13.9804 9.35519C14.7485 9.58199 15.4609 9.96641 16.0722 10.4839C16.6834 11.0014 17.1801 11.6407 17.5304 12.3608C17.8808 13.081 18.0773 13.8663 18.1072 14.6666H19.5555C19.7176 14.6666 19.873 14.6023 19.9877 14.4877C20.1023 14.373 20.1666 14.2176 20.1666 14.0555V6.7222C20.1666 6.56012 20.1023 6.40468 19.9877 6.29007C19.873 6.17547 19.7176 6.11108 19.5555 6.11108Z" fill="#545454"/>
<path d="M12.3138 19.519C14.8451 19.519 16.8971 17.4669 16.8971 14.9356C16.8971 12.4043 14.8451 10.3523 12.3138 10.3523C9.7825 10.3523 7.73047 12.4043 7.73047 14.9356C7.73047 17.4669 9.7825 19.519 12.3138 19.519Z" fill="#545454"/>
</g>
<defs>
<clipPath id="clip0_83_38">
<rect width="22" height="22" fill="white"/>
</clipPath>
</defs>
</svg>
