<svg width="22" height="22" viewBox="0 0 22 22" fill="none" xmlns="http://www.w3.org/2000/svg">
<path d="M4.125 19.25C4.125 19.25 2.75 19.25 2.75 17.875C2.75 16.5 4.125 12.375 11 12.375C17.875 12.375 19.25 16.5 19.25 17.875C19.25 19.25 17.875 19.25 17.875 19.25H4.125ZM11 11C12.094 11 13.1432 10.5654 13.9168 9.79182C14.6904 9.01823 15.125 7.96902 15.125 6.875C15.125 5.78098 14.6904 4.73177 13.9168 3.95818C13.1432 3.1846 12.094 2.75 11 2.75C9.90598 2.75 8.85677 3.1846 8.08318 3.95818C7.3096 4.73177 6.875 5.78098 6.875 6.875C6.875 7.96902 7.3096 9.01823 8.08318 9.79182C8.85677 10.5654 9.90598 11 11 11Z" fill="#545454"/>
</svg>
